<svg width="47" height="40" viewBox="0 0 47 40" fill="none" xmlns="http://www.w3.org/2000/svg">
<path d="M16.61 13.23C16.37 13.52 16.18 13.75 15.99 13.94L6.19 25.6L6.09 25.69C5.85 25.98 5.9 25.93 6.09 26.12C7.09 27.31 8.04 28.45 9.04 29.64C11.8 32.92 14.61 36.25 17.37 39.54C17.42 39.59 17.47 39.64 17.47 39.68C17.42 39.78 17.33 39.73 17.23 39.73H11.87C11.68 39.73 11.51 39.64 11.39 39.49C7.71 35.07 3.96 30.6 0.199999 26.17C-0.040001 25.88 -0.090001 25.93 0.199999 25.65C3.01 22.32 5.82 18.99 8.57 15.71C9.19 14.95 9.81 14.23 10.47 13.47C10.56 13.32 10.72 13.23 10.9 13.23H16.36C16.36 13.23 16.46 13.18 16.6 13.23" fill="#FFF3C6"/>
<path d="M28.79 39.73C28.93 39.59 28.98 39.49 29.08 39.4C32.79 34.97 36.5 30.6 40.21 26.17C40.27 26.12 40.32 26.05 40.35 25.98C40.42 25.93 40.43 25.83 40.38 25.77C40.38 25.77 40.36 25.75 40.35 25.74L40.3 25.69C40.25 25.59 40.16 25.55 40.11 25.45L30.07 13.55C29.96 13.45 29.87 13.34 29.78 13.22C29.89 13.18 30 13.17 30.11 13.17H35.34C35.57 13.17 35.78 13.27 35.91 13.46C39.14 17.31 42.43 21.17 45.66 25.02C45.84 25.25 46.03 25.47 46.23 25.69C46.33 25.77 46.36 25.91 46.28 26.02L46.23 26.07C45.75 26.59 45.32 27.16 44.85 27.69L35.05 39.35L34.91 39.49C34.83 39.67 34.63 39.77 34.43 39.73H28.77H28.79Z" fill="#FFF3C6"/>
<path d="M11.37 26.74C11.37 26.74 11.51 26.74 11.56 26.74C12.95 27.49 14.51 27.85 16.08 27.79C17.55 27.74 19.02 27.55 20.46 27.22C22.17 26.89 23.84 26.41 25.55 26.13C27.18 25.8 28.84 25.64 30.5 25.65C31.99 25.69 33.45 26 34.83 26.56C34.93 26.61 34.97 26.61 35.07 26.66C35.12 26.66 35.12 26.71 35.17 26.71C35.12 26.84 35.04 26.95 34.93 27.04L28.08 35.17C26.89 36.6 25.65 38.03 24.46 39.45C24.31 39.64 24.08 39.74 23.84 39.74H22.61C22.44 39.76 22.28 39.69 22.18 39.55C20.23 37.22 18.28 34.89 16.28 32.55L11.71 27.13C11.59 27.02 11.47 26.89 11.38 26.75" fill="#FFF3C6"/>
<path d="M25.89 3.35649e-06C25.83 0.120003 25.77 0.230003 25.7 0.330003C24.65 2.09 24.51 4.25 25.32 6.13C25.68 6.98 26.1 7.8 26.56 8.6C27.17 9.63 27.65 10.73 27.99 11.88C28.47 13.37 28.46 14.97 27.94 16.45C27.5 17.76 26.67 18.9 25.56 19.73C25.46 19.78 25.37 19.87 25.27 19.92H25.17C25.18 19.82 25.21 19.72 25.27 19.63C25.84 18.21 26.08 16.68 25.98 15.16C25.85 13.95 25.54 12.76 25.07 11.64C24.59 10.45 24.02 9.26 23.5 8.07C23.09 7.18 22.81 6.23 22.69 5.26C22.59 4.21 22.84 3.15 23.4 2.26C24.07 1.34 24.91 0.570003 25.88 -0.0199966" fill="#FFF3C6"/>
<path d="M19.75 19.89C20.14 19.29 20.43 18.63 20.61 17.94C20.84 16.79 20.71 15.59 20.23 14.51C19.91 13.79 19.55 13.09 19.14 12.42C18.8 11.87 18.5 11.3 18.23 10.71C17.99 10.25 17.85 9.75001 17.8 9.23001C17.71 8.47001 17.98 7.72001 18.51 7.18001C19.24 6.43001 20.12 5.83001 21.08 5.42001C21.03 5.55001 20.95 5.66001 20.84 5.75001C20.41 6.23001 20.11 6.83001 19.98 7.46001C19.8 8.25001 19.92 9.08001 20.31 9.79001C20.55 10.27 20.83 10.74 21.12 11.22C21.45 11.74 21.79 12.22 22.12 12.74C22.56 13.44 22.87 14.21 23.03 15.02C23.25 16.26 22.86 17.54 21.98 18.45C21.42 19.06 20.74 19.55 19.98 19.88C19.91 19.93 19.81 19.93 19.74 19.88" fill="#FFF3C6"/>
</svg>
